<?xml version="1.0" encoding="iso-8859-1"?>
<!-- Generator: Adobe Illustrator 19.0.0, SVG Export Plug-In . SVG Version: 6.00 Build 0)  -->
<svg fill="#34495e" version="1.1" id="Capa_1" xmlns="http://www.w3.org/2000/svg" xmlns:xlink="http://www.w3.org/1999/xlink" x="0px" y="0px"
	 viewBox="0 0 512 512" style="enable-background:new 0 0 512 512;" xml:space="preserve">
<g>
	<g>
		<g>
			<path d="M192,66.896L83.456,88.592C53.577,94.634,32.072,120.861,32,151.344V512h32V151.344
				c0.06-15.226,10.805-28.317,25.728-31.344L224,93.104V0h-32V66.896z"/>
			<path d="M428.544,88.592L320,66.896V0h-32v93.104L422.272,120c14.923,3.027,25.668,16.118,25.728,31.344V512h32V151.344
				C479.928,120.861,458.423,94.634,428.544,88.592z"/>
			<polygon points="128,208 96,208 96,224 127.552,383.328 96.608,491.616 96,512 128,512 128,498.24 160.448,384.672 128,222.416 
							"/>
			<polygon points="416,208 384,208 384,222.416 351.552,384.672 384,498.24 384,512 416,512 416,496 384.448,383.328 
				415.68,227.136 			"/>
			<rect x="240" y="128" width="32" height="160"/>
			<rect x="240" y="320" width="32" height="32"/>
			<rect x="240" y="384" width="32" height="32"/>
		</g>
	</g>
</g>
<g>
</g>
<g>
</g>
<g>
</g>
<g>
</g>
<g>
</g>
<g>
</g>
<g>
</g>
<g>
</g>
<g>
</g>
<g>
</g>
<g>
</g>
<g>
</g>
<g>
</g>
<g>
</g>
<g>
</g>
</svg>
